<svg enable-background="new 0 0 415 444.667" height="362.823132" viewBox="0 0 190 250" width="275.616385" xmlns="http://www.w3.org/2000/svg"><g transform="matrix(.74785238695 0 0 .74785238695 -66.09141849465 -52.11515904106)"><g fill="#13b5ea"><path d="m139.674 111.084 52.666 22.688v-45.5z"/><path d="m98.629 212.05v1.887s22.527 16.528 10.461 56.838c0 0-8.125 22.073-2.314 47.977l164.439-106.702z"/><path d="m159.379 145.997h-44l-16.67 29.303h235.424l-16.668-29.303h-44v16.252h-37v-16.252h-40.086v16.252h-37z"/><path d="m330.898 217.131-207.845 134.866c7.693 9.327 18.387 18.16 33.117 25.646 0 0 9.303 6.303 45.588 8.115.045.003.092.006.139.008h5.775v.004c4.582 0 8.332 3.199 8.713 7.273h.076c.381-4.074 4.133-7.273 8.713-7.273v-.004h5.773c36.4-1.805 45.727-8.123 45.727-8.123 72.801-37.002 47.08-106.869 47.08-106.869-9.061-30.261 1.377-47.118 7.144-53.643z"/><path d="m236.371 89.076.006-.006v-1.714l-.006-.002v-.08l-8.98-3.751-10.971-4.582-11.336 4.734-8.615 3.599v54.718h39.902z"/></g><g><path d="m293.115 111.084-52.666 22.688v-45.5z" fill="#e73129"/><path d="m334.215 213.936-.004-38.5-.078-.137h-235.424l-.078.137-.002 36.613h172.586l-164.44 106.702c2.436 10.857 7.32 22.387 16.277 33.246l207.846-134.866c1.916-2.166 3.317-3.195 3.317-3.195z" fill="#e73028"/></g><path d="m338.213 175.436c0-.696-.182-1.38-.527-1.984l-.074-.127c0-.001 0-.002 0-.003l-16.67-29.303c-.711-1.25-2.037-2.022-3.477-2.022h-44c-2.209 0-4 1.791-4 4v12.253h-29c0-4.547 0-12.252 0-12.252 0-.556-.131-1.074-.338-1.552.205-.47.33-.98.33-1.525v-5.157c.533 0 1.07-.1 1.574-.318l52.666-22.688c1.467-.632 2.416-2.074 2.418-3.67s-.945-3.04-2.41-3.674l-52.666-22.812c-.889-.386-1.871-.417-2.773-.134-.363-.363-.797-.664-1.293-.871l-19.951-8.333c-1.027-.429-2.189-.429-3.217 0l-19.951 8.333c-.502.209-.941.513-1.307.881-.908-.291-1.898-.264-2.795.125l-52.668 22.812c-1.465.634-2.412 2.079-2.41 3.674.002 1.596.953 3.038 2.418 3.67l52.666 22.688c.518.223 1.064.327 1.611.321v5.153c0 .554.129 1.071.342 1.547-.201.472-.332.983-.332 1.53v12.252h-29c0-4.547 0-12.253 0-12.253 0-2.209-1.791-4-4-4h-44c-1.438 0-2.766.772-3.477 2.022l-16.67 29.303c0 .001 0 .002-.002.003l-.072.127c-.346.604-.527 1.288-.527 1.984l-.002 36.613v1.887c0 1.256.611 2.455 1.615 3.21.641.483 12.422 9.672 12.422 31.089 0 6.093-.957 13.177-3.391 21.33-.559 1.563-4.605 13.469-4.605 29.773 0 6.236.594 13.11 2.203 20.288 2.9 12.933 8.652 24.68 17.096 34.915 8.615 10.447 20.121 19.38 34.191 26.561 1.859 1.156 12.762 6.921 47.398 8.652l.131.006c.07.004.137.006.207.006h5.777c2.461.004 4.537 1.604 4.729 3.648.191 2.057 1.957 3.629 4.021 3.629s3.83-1.572 4.021-3.629c.189-2.044 2.268-3.645 4.729-3.645l5.773-.004c.066 0 .133-.002.199-.005 34.922-1.731 45.781-7.558 47.563-8.674 38.992-19.911 50.228-49.193 52.777-70.274.482-3.991.682-7.832.682-11.457 0-16.332-4.049-28.247-4.598-29.79-2.398-8.034-3.338-15.045-3.338-21.094 0-15.601 6.23-24.807 9.664-28.692 1.559-1.763 2.695-2.626 2.707-2.635 1.002-.756 1.611-1.954 1.611-3.21zm-97.764-87.164 52.666 22.813-52.658 22.685v-44.639c0 .021-.006.041-.008.062zm-48.107 45.5-52.668-22.688 52.668-22.813zm4.119-44.61 15.633 15.878-9.066 9.479c-2.729 2.855-4.512 5.412-5.352 7.669-.838 2.258-.934 4.547-.289 6.867.646 2.32 1.932 4.489 3.861 6.505 2.863 2.995 5.879 4.426 9.047 4.294 2.031-.084 4.064-.861 6.105-2.313 2.066 1.489 4.129 2.288 6.184 2.374 3.168.132 6.184-1.3 9.047-4.295 1.93-2.017 3.217-4.185 3.863-6.505.645-2.32.547-4.609-.291-6.867-.838-2.257-2.623-4.814-5.352-7.669l-9.123-9.54 15.635-15.831v52.782h-39.902zm19.949 20.394 9.367 9.796c1.869 1.956 3.082 3.535 3.641 4.737.555 1.203.689 2.475.4 3.817s-.977 2.58-2.059 3.712c-1.471 1.537-3.078 2.258-4.83 2.165-1.676-.089-3.746-1.294-6.199-3.589l-.26-.357c-2.596 2.498-4.77 3.794-6.521 3.887-1.75.093-3.359-.628-4.828-2.165-1.082-1.132-1.77-2.37-2.061-3.712-.289-1.342-.154-2.614.4-3.817.557-1.202 1.77-2.781 3.641-4.737zm.002-30.615 10.971 4.582 4.119 1.721-15.092 15.28-15.109-15.272 3.777-1.577zm-101.033 67.056h44v16.253h37v-16.252h40.086v16.252h37v-16.253h44l14.395 25.303h-230.876zm-6.289 124.778c9.621-32.135-2.738-49.143-8.148-54.725h156.762c-1.119.726-2.602 1.688-4.379 2.842-.285.185-.57.37-.871.564-.871.566-1.807 1.172-2.805 1.82-.678.439-1.375.893-2.107 1.368-1.307.848-2.699 1.75-4.166 2.703-.066.042-.135.086-.199.129-3.449 2.238-7.314 4.746-11.502 7.464-.92.596-1.854 1.202-2.803 1.817-1.354.879-2.732 1.773-4.143 2.688-1.164.756-2.348 1.524-3.547 2.302-2.713 1.76-5.514 3.578-8.371 5.432-1.506.977-3.021 1.96-4.56 2.959-.553.359-1.107.719-1.664 1.081-4.279 2.776-8.658 5.617-13.08 8.486-.596.387-1.193.775-1.791 1.163-5.68 3.685-11.408 7.403-17.064 11.074-2.162 1.402-4.314 2.799-6.455 4.188-.711.461-1.418.921-2.125 1.379-.91.59-1.818 1.18-2.721 1.766-1.432.928-2.852 1.85-4.258 2.762-7.92 5.139-15.482 10.047-22.32 14.484-.293.189-.586.379-.875.566-13.895 9.017-23.949 15.54-26.264 17.042-1.588 1.03-2.834 1.839-3.686 2.392-4.108-24.03 3.142-43.746 3.142-43.746zm214.664 0s25.721 69.867-47.08 106.869c0 0-9.326 6.318-45.727 8.123h-5.773v.004c-4.58 0-8.332 3.199-8.711 7.273h-.078c-.379-4.074-4.131-7.273-8.711-7.273v-.004h-5.777c-.047-.002-.092-.005-.139-.008-36.285-1.813-45.588-8.115-45.588-8.115-13.113-6.666-23.021-14.398-30.467-22.597l199.563-129.492c-4.561 9.076-7.93 23.78-1.512 45.22zm9.976-56.448c-.566.477-1.586 1.396-2.83 2.804l-207.845 134.866c-.857-1.039-1.666-2.085-2.449-3.135-6.441-8.629-10.471-17.591-12.857-26.236-.359-1.299-.684-2.592-.973-3.875l164.441-106.701h-172.588v-4l.002-28.755v-3.858l.078-.137h235.426l.078.137v3.858l.002 34.642c0-.001-.18.133-.485.39z" fill="#968668"/><g><g enable-background="new" fill="#968668" stroke="#968668"><path d="m135.455 244.688 12.795-9.296c.063-.046.135-.065.209-.073v-10.149c-.92-.668-5.721-4.156-6.063-4.405-5.846 1.368-11.189 4.633-15.09 9.23.002.346.068 7.869.086 9.789z"/><path d="m169.396 239.832c.018-1.922.094-10.333.098-10.824-.096-.102-.191-.202-.287-.303-.291-.303-.588-.598-.891-.886-.146-.14-.289-.282-.439-.419-.398-.365-.811-.717-1.229-1.058-.174-.142-.354-.279-.531-.417-.328-.256-.664-.504-1.002-.743-.148-.104-.295-.214-.445-.315-.473-.322-.957-.627-1.449-.918-.133-.078-.268-.154-.4-.23-.516-.293-1.037-.578-1.57-.838-.006-.002-.01-.006-.016-.008-1.848-.901-3.799-1.601-5.828-2.084-.33.24-4.838 3.514-5.947 4.32v10.461l12.279 8.923z"/><path d="m176.885 244.897c-.029-.236-.057-.471-.09-.704-.045-.3-.096-.599-.148-.896-.018-.1-.035-.2-.055-.3-.512-.171-5.967-1.998-6.754-2.262l-7.303 4.444c.041.104.053.219.016.33l-5.004 15.399 6.238 4.421-.027.04c1.951-.384 8.344-1.64 8.752-1.72.045-.068.09-.139.135-.207.289-.453.566-.912.83-1.379.043-.078.09-.155.133-.234.289-.521.555-1.053.809-1.59.066-.143.131-.286.195-.43.191-.427.371-.857.543-1.293.057-.148.119-.295.176-.443.193-.521.369-1.047.531-1.577.064-.21.121-.423.182-.636.098-.352.189-.705.275-1.061.059-.247.119-.492.17-.741.105-.497.197-.997.275-1.501.047-.298.078-.6.115-.899.033-.269.063-.538.088-.808.031-.33.057-.661.076-.994.014-.234.018-.469.025-.703.01-.299.023-.598.023-.899 0-.946-.049-1.883-.141-2.806-.018-.182-.044-.368-.065-.551z"/><path d="m134.918 245.532-7.912-4.813c-.502.168-5.354 1.792-5.848 1.958-.369 1.838-.568 3.713-.568 5.578 0 5.581 1.635 10.966 4.707 15.598.359.07 6.133 1.203 7.832 1.537l-.041-.059 6.715-4.761z"/><path d="m140.471 261.323-6.465 4.582c0 .004.004.006.004.01 0 0 .77 6.365.828 6.859 3.172 1.814 6.662 2.998 10.268 3.484.059.008.117.015.176.021.5.064 1.002.112 1.506.15.111.008.223.017.334.025.572.035 1.145.057 1.719.057.018 0 .035-.002.053-.002.52-.001 1.037-.017 1.555-.048.127-.007.25-.02.375-.028.43-.031.861-.068 1.289-.119.098-.01.193-.023.289-.036.486-.063.971-.135 1.453-.222.031-.006.063-.012.094-.018 2.748-.51 5.416-1.426 7.896-2.713.016-.008.029-.016.045-.023.063-.521.891-7.389.891-7.389.004-.021.021-.033.025-.053l-6.404-4.539h-15.931z"/></g><path d="m177.537 242.525c-.004-.015-.016-.026-.021-.04-1.066-5.309-3.572-10.101-7.096-13.953-.018-.031-.031-.064-.057-.091-.244-.266-.506-.51-.758-.765-.055-.055-.109-.109-.162-.164-.963-.957-1.984-1.84-3.057-2.646-.045-.033-.09-.066-.135-.1-1.063-.789-2.17-1.504-3.326-2.139-.168-.093-.338-.181-.508-.27-.471-.248-.947-.484-1.434-.705-.332-.152-.668-.302-1.008-.442-.238-.099-.479-.192-.721-.285-.52-.198-1.045-.386-1.578-.556-.049-.016-.096-.034-.146-.049-.635-.199-1.283-.368-1.938-.524-.057-.014-.111-.032-.168-.045-.01-.003-.02.001-.029-.001-2.111-.485-4.305-.751-6.561-.751-2.217 0-4.375.256-6.451.726-.002.001-.006-.001-.008 0-.014.003-.027.008-.041.011-3.92.893-7.541 2.572-10.689 4.867-.006.004-.01.007-.016.01-.604.441-1.189.904-1.756 1.39-.076.064-.15.129-.225.194-.537.468-1.063.951-1.564 1.457-.066.066-.129.137-.195.205-.451.463-.885.941-1.305 1.432-.053.063-.113.119-.166.182-.006.008-.01.019-.016.027-4.256 5.082-6.824 11.624-6.824 18.756 0 2.207.254 4.356.719 6.424.006.026.012.053.018.078.311 1.357.713 2.68 1.203 3.958.035.091.072.18.108.269.23.586.478 1.165.746 1.732.02.041.035.082.055.122.275.575.574 1.138.885 1.692.08.145.164.287.248.43.283.486.578.964.889 1.432.039.061.074.125.113.186.004.004.008.006.012.01 2.463 3.646 5.728 6.705 9.537 8.932.004.004.006.009.012.012.037.021.078.041.115.063.5.289 1.008.563 1.523.822.031.016.061.031.092.047 1.123.559 2.287 1.045 3.488 1.459.025.008.051.018.078.025 1.746.596 3.564 1.031 5.441 1.287.104.014.207.026.311.039.488.061.98.111 1.479.147.133.011.268.022.402.03.59.036 1.184.061 1.783.061h.004.006c.014 0 .029-.002.045-.002.545-.001 1.086-.02 1.623-.051.154-.008.307-.023.461-.034.416-.03.832-.067 1.244-.116.152-.018.303-.037.455-.057.432-.058.861-.124 1.287-.199.123-.021.244-.043.367-.066.5-.096.998-.203 1.49-.324.047-.012.096-.022.143-.033.559-.14 1.111-.295 1.658-.467.072-.023.143-.049.215-.072.43-.14.854-.287 1.275-.445.221-.084.441-.173.66-.262.256-.104.508-.208.76-.318.277-.121.555-.244.828-.375.158-.074.313-.152.469-.23.252-.125.51-.242.76-.375.016-.009.023-.025.039-.035 4.264-2.289 7.898-5.604 10.57-9.615.021-.021.047-.037.063-.063.152-.23.285-.473.432-.707.098-.158.195-.316.291-.475.627-1.055 1.186-2.141 1.672-3.258.084-.193.168-.387.248-.582.141-.342.279-.684.406-1.029.061-.164.111-.332.17-.497.213-.614.406-1.233.576-1.86.066-.24.131-.482.189-.725.082-.334.164-.67.234-1.008.059-.285.107-.574.158-.863.094-.531.174-1.066.238-1.604.033-.265.063-.528.088-.796.031-.345.059-.69.078-1.037.016-.262.021-.526.029-.791.01-.295.033-.588.033-.885.003-1.917-.189-3.844-.562-5.732zm-22.131-21.736c2.029.483 3.98 1.183 5.828 2.084.006.002.01.006.016.008.533.26 1.055.545 1.57.838.133.076.268.152.4.23.492.291.977.596 1.449.918.15.102.297.211.445.315.338.239.674.487 1.002.743.178.138.357.275.531.417.418.341.83.692 1.229 1.058.15.137.293.279.439.419.303.288.6.583.891.886.096.101.191.201.287.303-.004.491-.08 8.902-.098 10.824l-7.658 4.661-12.279-8.923v-10.46c1.11-.807 5.618-4.08 5.948-4.321zm-13.01-.024c.342.249 5.143 3.737 6.063 4.405v10.148c-.074.008-.146.027-.209.073l-12.795 9.296-8.063-4.904c-.018-1.92-.084-9.443-.086-9.789 3.901-4.596 9.245-7.861 15.09-9.229zm-21.806 27.489c0-1.865.199-3.74.568-5.578.494-.166 5.346-1.79 5.848-1.958l7.912 4.813 4.885 15.038-6.715 4.761.041.059c-1.699-.334-7.473-1.467-7.832-1.537-3.072-4.632-4.707-10.017-4.707-15.598zm42.189 17.66s-.828 6.867-.891 7.389c-.016.008-.029.016-.045.023-2.48 1.287-5.148 2.203-7.896 2.713-.031.006-.063.012-.094.018-.482.087-.967.159-1.453.222-.096.013-.191.026-.289.036-.428.051-.859.088-1.289.119-.125.009-.248.021-.375.028-.518.03-1.035.047-1.555.048-.018 0-.035.002-.053.002-.574 0-1.146-.022-1.719-.057-.111-.008-.223-.018-.334-.025-.504-.038-1.006-.086-1.506-.15-.059-.007-.117-.014-.176-.021-3.605-.486-7.096-1.67-10.268-3.484-.059-.494-.828-6.859-.828-6.859 0-.004-.004-.006-.004-.01l6.465-4.582h15.93l6.404 4.539c-.002.018-.02.031-.024.051zm14.289-16.759c-.008.234-.012.469-.025.703-.02.333-.045.664-.076.994-.025.27-.055.539-.088.808-.037.3-.068.602-.115.899-.078.504-.17 1.004-.275 1.501-.051.249-.111.494-.17.741-.086.355-.178.709-.275 1.061-.061.213-.117.426-.182.636-.162.53-.338 1.057-.531 1.577-.057.148-.119.295-.176.443-.172.436-.352.866-.543 1.293-.064.144-.129.287-.195.43-.254.537-.52 1.068-.809 1.59-.043.079-.09.156-.133.234-.264.467-.541.926-.83 1.379-.045.068-.09.139-.135.207-.408.08-6.801 1.336-8.752 1.72l.027-.04-6.238-4.421 5.004-15.399c.037-.111.025-.227-.016-.33l7.303-4.444c.787.264 6.242 2.091 6.754 2.262.02.1.037.2.055.3.053.297.104.596.148.896.033.233.061.468.09.704.021.184.047.369.066.554.092.923.141 1.859.141 2.806 0 .298-.014.597-.024.896z" fill="#81705e"/></g><g><path d="m275.967 289.814v12.889h-9.205v-12.87h-15.229v12.87h-9.207v-12.889h-10.568v19.18l3.902 3.902v15.277l-7.451 12.582v22.094h61.875v-22.094l-7.451-12.582v-15.277l3.902-3.902v-19.18z" fill="#968668"/><path d="m283.133 328.037v-14.934c.272-.272 3.902-3.902 3.902-3.902v-19.887h-11.568v12.889h-8.205c0-.924 0-12.869 0-12.869h-16.229v12.869h-8.207c0-.924 0-12.889 0-12.889h-11.568v19.887s3.631 3.631 3.902 3.902v14.934c-.137.23-7.451 12.582-7.451 12.582v22.73h62.875v-22.73s-7.314-12.352-7.451-12.582zm4.744 9.974h-13.213v-10.758h7.469v1.057s3.545 5.986 5.744 9.701zm-28.172-11.758v-10.756h22.428v10.756zm13.959 1v10.758h-7.611c-1.465-2.256-4-3.754-6.885-3.754s-5.422 1.498-6.887 3.754h-9.148v-10.758zm2.803-36.939h9.568v11.908h-9.568zm-1.803 12.908h11.371v5.565c-.271.271-3.902 3.902-3.902 3.902v1.809h-7.469zm-14.959-12.889h6.557v11.889h-6.557zm-7.672 0h6.672v11.889h-6.672zm-8.9 12.889h30.531v11.275h-30.531zm15.572 12.275v10.756h-22.545v-10.756zm-26.447-25.183h9.568v11.908h-9.568zm0 18.473v-5.565h9.875v11.275h-5.973v-1.809c0 .001-3.631-3.63-3.902-3.901zm3.902 19.523v-1.057h5.973v10.758h-11.717c2.199-3.715 5.744-9.701 5.744-9.701zm-7.451 12.582c.033-.055.471-.793 1.115-1.881h21.906c-.492 1.052-.773 2.22-.773 3.455v7.303h-22.248zm13.424 21.457h-13.424v-11.58h13.424zm1-11.58h7.824v11.58h-7.824zm8.824-8.303c0-1.252.32-2.429.885-3.455.193-.354.42-.686.668-1 1.32-1.674 3.363-2.754 5.658-2.754 2.293 0 4.336 1.08 5.656 2.754.248.314.475.646.668 1 .564 1.026.885 2.203.885 3.455v19.883h-14.42zm21.707 19.883h-6.287v-11.58h6.287zm15.92 0h-14.92v-11.58h14.92zm0-12.58h-22.207v-7.303c0-1.235-.281-2.403-.772-3.455h21.863c.645 1.088 1.082 1.826 1.115 1.881v8.877z" fill="#83715e"/></g><g fill="#fff"><path d="m287.678 207.163v-5.187h4.313v5.187z"/><path d="m319.098 207.163v-5.187h4.313v5.187z"/><path d="m117.885 196.413 3.021-10 3.188 10zm5.465-16.312h-4.902l-8.697 27.062h4.889l1.85-6.125h9.08l1.953 6.125h4.916z"/><path d="m139.314 184.726h3.525c1.836 0 2.938.03 3.305.091.734.146 1.301.493 1.699 1.044.396.551.596 1.273.596 2.168 0 .799-.152 1.464-.459 1.996s-.729.907-1.268 1.125-1.891.326-4.057.326h-3.342v-6.75zm0 22.437v-11.312h.932c1.057 0 1.826.101 2.311.303.484.202.943.575 1.379 1.119.434.544 1.242 1.861 2.422 3.952l3.221 5.938h5.361l-2.738-5.29c-1.063-2.107-1.906-3.575-2.533-4.401s-1.422-1.584-2.387-2.275c1.936-.344 3.395-1.176 4.375-2.497.98-1.32 1.471-2.995 1.471-5.023 0-1.597-.328-3.016-.986-4.257-.656-1.241-1.529-2.105-2.617-2.59s-2.828-.728-5.225-.728h-9.547v27.062h4.561z"/><path d="m156.256 198.288 4.438-.5c.268 1.785.803 3.096 1.607 3.933.805.837 1.889 1.255 3.254 1.255 1.451 0 2.545-.371 3.281-1.115.738-.743 1.107-1.612 1.107-2.607 0-.639-.156-1.183-.469-1.631s-.854-.839-1.625-1.171c-.527-.219-1.734-.609-3.619-1.172-2.424-.72-4.127-1.609-5.105-2.669-1.371-1.49-2.057-3.308-2.057-5.452 0-1.379.324-2.67.977-3.871.65-1.201 1.586-2.115 2.803-2.744 1.217-.628 2.691-.942 4.424-.942 2.814 0 4.934.756 6.359 2.266 1.426 1.51 2.176 3.525 2.25 6.047l-4.563.188c-.195-1.399-.609-2.404-1.242-3.018-.635-.613-1.584-.92-2.852-.92-1.303 0-2.326.327-3.068.981-.477.42-.713.98-.713 1.684 0 .643.225 1.191.678 1.648.563.58 1.941 1.182 4.137 1.805 2.195.623 3.82 1.27 4.871 1.941 1.053.672 1.877 1.59 2.477 2.754s.9 2.602.9 4.315c0 1.553-.359 3.006-1.078 4.361s-1.729 2.363-3.029 3.022c-1.301.658-2.928.988-4.881.988-2.836 0-5.016-.798-6.537-2.395-1.522-1.597-2.43-3.924-2.725-6.981z"/><path d="m178.4 207.163v-27.062h16.625v4.625h-12.063v5.937h11.25v4.625h-11.25v7.25h12.5v4.625z"/><path d="m199.357 207.163v-27.062h4.451l9.174 17.997v-17.997h4.25v27.062h-4.582l-9.043-17.606v17.606z"/><path d="m227.871 196.413 3.02-10 3.189 10zm5.463-16.312h-4.9l-8.699 27.062h4.889l1.85-6.125h9.082l1.953 6.125h4.914z"/><path d="m244.738 207.163v-26.875h4.563v22.25h11.375v4.625z"/><path d="m272.092 207.163v-27.062h15.438v4.625h-10.875v6.312h9.375v4.625h-9.375v11.5z"/><path d="m310.906 197.163 4.438 1.625c-.666 2.981-1.789 5.195-3.367 6.643-1.578 1.447-3.576 2.17-5.992 2.17-2.984 0-5.441-1.228-7.371-3.685-1.93-2.456-2.895-5.814-2.895-10.075 0-4.506.967-8.006 2.902-10.5 1.935-2.493 4.48-3.74 7.637-3.74 2.762 0 4.998.98 6.713 2.941 1.035 1.16 1.805 2.825 2.311 4.996l-4.5 1.313c-.271-1.409-.83-2.522-1.674-3.338-.846-.816-1.871-1.225-3.078-1.225-1.678 0-3.033.72-4.068 2.158-1.037 1.438-1.555 3.768-1.555 6.988 0 3.418.51 5.853 1.531 7.303 1.022 1.451 2.35 2.176 3.986 2.176 1.205 0 2.242-.462 3.109-1.387.867-.924 1.49-2.379 1.873-4.363z"/></g></g></svg>